<?xml version="1.0" encoding="utf-8"?>
<!-- Generator: Adobe Illustrator 26.0.0, SVG Export Plug-In . SVG Version: 6.00 Build 0)  -->
<svg version="1.1" id="圖層_1" xmlns="http://www.w3.org/2000/svg" xmlns:xlink="http://www.w3.org/1999/xlink" x="0px" y="0px"
	 viewBox="0 0 181.26 66.48" style="enable-background:new 0 0 181.26 66.48;" xml:space="preserve">
<style type="text/css">
	.st0{fill:#231815;}
	.st1{fill:#F6AB00;}
</style>
<g>
	<g>
		<path class="st0" d="M79.88,12.65h14.03c0.15,0,0.23,0.08,0.23,0.23v2.51c0,0.15-0.08,0.23-0.23,0.23h-11.3v6.97h8.82
			c0.15,0,0.23,0.08,0.23,0.23v2.51c0,0.15-0.08,0.23-0.23,0.23h-8.82v5.7l1.24,1.24h10.48c0.15,0,0.23,0.05,0.23,0.16
			c0,0.04,0,0.08,0,0.1l-0.46,2.51c-0.02,0.13-0.1,0.2-0.23,0.2H82.62c-0.11,0-0.21-0.04-0.29-0.13l-2.54-2.54
			c-0.09-0.09-0.13-0.18-0.13-0.29v-19.6C79.65,12.73,79.73,12.65,79.88,12.65z"/>
		<path class="st0" d="M98.28,35.44c-0.15,0-0.23-0.08-0.23-0.23v-2.38c0-0.13,0.03-0.23,0.1-0.29l9.15-11.07v-0.33h-9.02
			c-0.15,0-0.23-0.08-0.23-0.23v-2.34c0-0.15,0.08-0.23,0.23-0.23h12.83c0.15,0,0.23,0.08,0.23,0.23v2.54c0,0.09-0.03,0.18-0.1,0.29
			l-9.15,10.94v0.29h9.02c0.15,0,0.23,0.08,0.23,0.23v2.34c0,0.15-0.08,0.23-0.23,0.23H98.28z"/>
		<path class="st0" d="M115.4,35.21V12.88c0-0.15,0.08-0.23,0.23-0.23h2.51c0.15,0,0.23,0.08,0.23,0.23v9.7h10.97v-9.7
			c0-0.15,0.08-0.23,0.23-0.23h2.51c0.15,0,0.23,0.08,0.23,0.23v22.33c0,0.15-0.08,0.23-0.23,0.23h-2.51
			c-0.15,0-0.23-0.08-0.23-0.23v-9.67h-10.97v9.67c0,0.15-0.08,0.23-0.23,0.23h-2.51C115.47,35.44,115.4,35.36,115.4,35.21z"/>
		<path class="st0" d="M137.31,15.87c-0.15,0-0.23-0.08-0.23-0.23v-2.83c0-0.15,0.08-0.23,0.23-0.23h2.64
			c0.15,0,0.23,0.08,0.23,0.23v2.83c0,0.15-0.08,0.23-0.23,0.23H137.31z M137.34,35.44c-0.15,0-0.23-0.08-0.23-0.23V18.57
			c0-0.15,0.08-0.23,0.23-0.23h2.54c0.15,0,0.23,0.08,0.23,0.23v16.64c0,0.15-0.08,0.23-0.23,0.23H137.34z"/>
		<path class="st0" d="M143.66,18.35h2.57c0.15,0,0.24,0.05,0.26,0.16l5.11,13.05h0.36l5.24-13.05c0.02-0.11,0.11-0.16,0.26-0.16
			h2.47c0.15,0,0.23,0.04,0.23,0.13c0,0.04-0.01,0.09-0.03,0.13l-6.64,16.67c-0.02,0.11-0.11,0.16-0.26,0.16h-2.8
			c-0.13,0-0.22-0.05-0.26-0.16l-6.71-16.67c-0.02-0.04-0.03-0.09-0.03-0.13C143.43,18.39,143.5,18.35,143.66,18.35z"/>
		<path class="st0" d="M162.86,32.93V20.85c0-0.11,0.04-0.21,0.13-0.29l2.08-2.08c0.09-0.09,0.18-0.13,0.29-0.13h9.18
			c0.11,0,0.21,0.04,0.29,0.13l2.08,2.08c0.09,0.09,0.13,0.18,0.13,0.29v6.61c0,0.15-0.08,0.23-0.23,0.23h-10.97v4.1l0.94,0.94h6.45
			l0.91-0.94v-1.56c0-0.15,0.08-0.23,0.23-0.23h2.44c0.15,0,0.23,0.08,0.23,0.23v2.7c0,0.11-0.04,0.21-0.13,0.29l-2.12,2.08
			c-0.09,0.09-0.18,0.13-0.29,0.13h-9.15c-0.11,0-0.21-0.04-0.29-0.13l-2.08-2.08C162.91,33.14,162.86,33.04,162.86,32.93z
			 M165.86,25.35h8.33v-3.45l-0.94-0.94h-6.45l-0.94,0.94V25.35z"/>
	</g>
	<g>
		<path class="st0" d="M115.04,52.15c0.54-0.73,1.03-1.52,1.47-2.36c0.44-0.84,0.79-1.64,1.07-2.41h-1.15v-5.82h11.66v5.82H119
			c-0.07,0.22-0.15,0.44-0.24,0.65c-0.09,0.21-0.17,0.42-0.26,0.63h9.87v4.18c0,0.55-0.05,1.07-0.15,1.55
			c-0.1,0.48-0.27,0.88-0.52,1.2h-1.72c0.7-0.71,1.05-1.63,1.05-2.76V49.8h-1.99c-0.27,1.12-0.63,2.17-1.1,3.17
			c-0.47,0.99-1,1.87-1.61,2.62h-1.74c0.77-0.86,1.41-1.78,1.92-2.74c0.52-0.97,0.91-1.98,1.19-3.05h-2.28
			c-0.2,0.54-0.44,1.08-0.7,1.63c-0.27,0.54-0.55,1.06-0.86,1.55c-0.31,0.49-0.63,0.97-0.96,1.41s-0.68,0.85-1.03,1.2h-1.8
			c0.86-0.83,1.63-1.74,2.31-2.73c0.68-0.99,1.23-2.01,1.66-3.06h-2.07c-0.21,0.45-0.44,0.86-0.67,1.25
			c-0.23,0.39-0.47,0.75-0.72,1.09H115.04z M117.8,43.94h8.9V42.6h-8.9V43.94z M126.7,46.33v-1.36h-8.9v1.36H126.7z"/>
		<path class="st0" d="M137.53,41.62v2.74h0.59v1.1h-0.59v2.76h-3.64c-0.02,0.21-0.05,0.42-0.08,0.61c-0.03,0.2-0.06,0.4-0.1,0.6
			h4.02v6.17h-4.34v-4.48c-0.17,0.77-0.36,1.52-0.57,2.25c-0.21,0.73-0.43,1.48-0.68,2.23h-1.28c0.49-1.32,0.88-2.57,1.18-3.76
			c0.3-1.19,0.53-2.4,0.69-3.62h-1.42v-1.12h1.55c0.02-0.27,0.04-0.54,0.06-0.81c0.02-0.28,0.04-0.55,0.06-0.83h-1.96v-1.1h2.01
			c0.03-0.52,0.05-1.06,0.05-1.63h-1.77v-1.12H137.53z M136.35,47.11v-1.64h-2.18c-0.02,0.29-0.04,0.57-0.06,0.84
			c-0.02,0.27-0.05,0.54-0.08,0.81H136.35z M134.26,42.74c0,0.28,0,0.55-0.01,0.82c-0.01,0.27-0.01,0.54-0.02,0.81h2.12v-1.63
			H134.26z M134.53,54.48h2.07v-3.94h-2.07V54.48z M139.75,43.2c-0.05-0.31-0.12-0.65-0.21-1.02c-0.09-0.37-0.17-0.7-0.26-0.97h1.21
			c0.1,0.3,0.19,0.62,0.27,0.96c0.08,0.35,0.16,0.69,0.22,1.03h1.56c0.11-0.32,0.21-0.66,0.31-1.04c0.1-0.37,0.18-0.69,0.23-0.96
			h1.21c-0.06,0.31-0.14,0.64-0.23,1s-0.18,0.69-0.28,0.99h1.4v1.2h-2.74v2.58h2.41v1.16h-2.41v2.7h2.82v1.2h-2.82v3.56h-1.34v-3.56
			h-2.84v-1.2h2.84v-2.7h-2.41v-1.16h2.41V44.4h-2.74v-1.2H139.75z"/>
		<path class="st0" d="M146.81,48.4c0.3-0.57,0.58-1.18,0.86-1.81c0.28-0.63,0.54-1.26,0.79-1.88c0.25-0.62,0.48-1.23,0.68-1.83
			c0.2-0.6,0.37-1.16,0.51-1.67h1.44c-0.13,0.47-0.28,0.96-0.45,1.49c-0.17,0.53-0.36,1.06-0.56,1.6v11.29h-1.37V47.6
			c-0.06,0.15-0.13,0.29-0.19,0.41c-0.06,0.13-0.13,0.25-0.19,0.38H146.81z M155.61,46.7v-2.6h-4.23v-1.2h4.23v-1.69h1.36v1.69h4.27
			v1.2h-4.27v2.6h3.95v1.18h-9.25V46.7H155.61z M160.67,49.39v6.2h-8.68v-6.2H160.67z M153.32,54.41h6.04v-3.86h-6.04V54.41z"/>
		<path class="st0" d="M165.68,44.86l-0.76,9.58h12.34v1.15h-13.71l0.77-9.52h-1.47v-1.21H165.68z M164.42,43.97
			c-0.08-0.5-0.18-0.96-0.28-1.4c-0.1-0.43-0.21-0.84-0.34-1.24h1.32c0.12,0.36,0.23,0.76,0.35,1.2c0.12,0.44,0.22,0.92,0.32,1.43
			H164.42z M168.83,48.07V47h1.29v1.07h3.54V47h1.26v1.07h2.14v0.96h-2.14v1.44h2.31v0.94h-10.72v-0.94h2.31v-1.44h-2.14v-0.96
			H168.83z M168.07,44.57v1.1h3.54v0.86h-4.7v-5.02h4.63v3.06H168.07z M167.35,54.01c0.34-0.4,0.63-0.78,0.88-1.13
			c0.24-0.35,0.46-0.7,0.65-1.05h1.5c-0.2,0.43-0.41,0.81-0.64,1.16c-0.22,0.35-0.46,0.69-0.72,1.03H167.35z M168.07,43.76h2.34
			v-1.42h-2.34V43.76z M170.12,50.46h3.54v-1.44h-3.54V50.46z M173.38,44.57v1.1h3.65v0.86h-4.82v-5.02h4.72v3.06H173.38z
			 M173.38,43.76h2.44v-1.42h-2.44V43.76z M174.75,54.01c-0.21-0.36-0.43-0.73-0.65-1.1c-0.22-0.37-0.46-0.73-0.7-1.08h1.48
			c0.22,0.3,0.46,0.63,0.71,1c0.25,0.37,0.49,0.77,0.73,1.18H174.75z"/>
	</g>
	<g>
		<path class="st1" d="M67.56,28.62l-10.23-5.91c-1.26-0.73-2.83-0.73-4.09,0l-2.45,1.41V13.48c0-1.46-0.78-2.82-2.05-3.55
			l-1.66-0.96l4.41-2.52c0.74-0.42,0.99-1.36,0.57-2.09c-0.42-0.74-1.36-0.99-2.09-0.57L44,7.2l-5.49-3.17
			c-1.26-0.73-2.83-0.73-4.09,0l-5.53,3.19L22.96,3.8c-0.73-0.42-1.67-0.17-2.1,0.56c-0.43,0.73-0.17,1.67,0.56,2.1L25.81,9
			l-1.63,0.94c-1.26,0.73-2.05,2.09-2.05,3.55v10.64l-2.44-1.41c-1.26-0.73-2.83-0.73-4.09,0L5.36,28.62
			c-1.26,0.73-2.05,2.09-2.05,3.55v11.82c0,1.46,0.78,2.82,2.05,3.55l10.23,5.91c0.63,0.36,1.34,0.55,2.05,0.55
			c0.71,0,1.42-0.18,2.05-0.55l1.67-0.97v-3.55l-3.21,1.85c-0.32,0.18-0.71,0.18-1.02,0L6.9,44.87c-0.32-0.18-0.51-0.52-0.51-0.89
			V32.16c0-0.36,0.2-0.7,0.51-0.89l10.23-5.91c0.16-0.09,0.33-0.14,0.51-0.14c0.18,0,0.35,0.05,0.51,0.14l6.02,3.48c0,0,0,0,0,0
			l2.97,1.71l1.24,0.72c0.32,0.18,0.51,0.52,0.51,0.89v11.82c0,0.36-0.2,0.7-0.51,0.89l-2.42,1.4v3.55l3.95-2.28
			c1.26-0.73,2.05-2.09,2.05-3.55V33.35l2.44,1.41c0.63,0.36,1.34,0.55,2.05,0.55c0.71,0,1.42-0.18,2.05-0.55l2.45-1.41v10.64
			c0,1.46,0.78,2.82,2.05,3.55l3.95,2.28v-3.55l-2.41-1.39c-0.32-0.18-0.51-0.52-0.51-0.89V32.16c0-0.36,0.2-0.7,0.51-0.89
			l10.23-5.91c0.16-0.09,0.33-0.14,0.51-0.14c0.18,0,0.35,0.05,0.51,0.14l10.23,5.91c0.32,0.18,0.51,0.52,0.51,0.89v11.82
			c0,0.36-0.2,0.7-0.51,0.89l-10.23,5.91c-0.32,0.18-0.71,0.18-1.02,0l-3.21-1.86v3.55l1.68,0.97c0.63,0.36,1.34,0.55,2.05,0.55
			c0.71,0,1.42-0.18,2.05-0.55l10.23-5.91c1.26-0.73,2.05-2.09,2.05-3.55V32.16C69.61,30.71,68.82,29.35,67.56,28.62z M35.95,6.69
			c0.16-0.09,0.33-0.14,0.51-0.14c0.18,0,0.35,0.05,0.51,0.14l3.93,2.27c-2.78,1.51-6.16,1.52-8.95,0.03L35.95,6.69z M47.72,25.3
			c0,0.36-0.2,0.7-0.51,0.89L36.97,32.1c-0.32,0.18-0.71,0.18-1.02,0l-6.02-3.48c0,0,0,0,0,0l-4.21-2.43
			c-0.32-0.18-0.51-0.52-0.51-0.89V13.48c0-0.36,0.2-0.7,0.51-0.89l3.16-1.83l1.26,0.73c1.93,1.12,4.1,1.68,6.26,1.68
			c2.14,0,4.28-0.55,6.19-1.64l1.4-0.8l3.22,1.86c0.32,0.18,0.51,0.52,0.51,0.89V25.3z"/>
		<path class="st1" d="M48.11,38.89l-4.06-2.07l0.19,3.54l2.48,1.27c0.32,0.17,0.54,0.49,0.56,0.86l0.62,11.8
			c0.02,0.36-0.16,0.71-0.46,0.91l-9.91,6.44c-0.31,0.2-0.7,0.22-1.02,0.05l-10.53-5.36c-0.32-0.17-0.54-0.49-0.56-0.86l-0.62-11.8
			c-0.02-0.36,0.16-0.71,0.46-0.91l2.34-1.52l-0.19-3.54l-3.83,2.49c-1.22,0.79-1.93,2.19-1.86,3.65l0.62,11.8
			c0.08,1.46,0.93,2.77,2.23,3.43l10.53,5.36c0.65,0.33,1.37,0.48,2.07,0.44c0.71-0.04,1.4-0.26,2.02-0.65l9.91-6.44
			c1.22-0.79,1.93-2.19,1.86-3.65l-0.62-11.8C50.27,40.86,49.41,39.55,48.11,38.89z"/>
	</g>
</g>
</svg>
