<?xml version="1.0" encoding="utf-8"?>
<!-- Generator: Adobe Illustrator 26.0.0, SVG Export Plug-In . SVG Version: 6.00 Build 0)  -->
<svg version="1.1" id="圖層_1" xmlns="http://www.w3.org/2000/svg" xmlns:xlink="http://www.w3.org/1999/xlink" x="0px" y="0px"
	 viewBox="0 0 8 16" style="enable-background:new 0 0 8 16;" xml:space="preserve">
<style type="text/css">
	.st0{fill:#8D1D25;}
	.st1{fill:#FFFFFF;}
</style>
<g>
	<path d="M4.41,7.03C4.36,7.02,4.32,7.02,4.28,7.01C4.22,6.99,4.19,6.95,4.22,6.89c0.02-0.03,0.04-0.05,0.06-0.07
		c0.09-0.09,0.19-0.17,0.29-0.25c0.07-0.06,0.06-0.09,0-0.15C4.48,6.34,4.4,6.25,4.34,6.16C4.25,6.04,4.18,5.91,4.1,5.78
		C4.06,5.72,4.01,5.67,3.97,5.61c0,0-0.01-0.01-0.01-0.01C3.91,5.54,3.86,5.48,3.91,5.4c0.02-0.04,0.02-0.09,0.04-0.14
		c0.02-0.07,0.07-0.08,0.13-0.04C4.09,5.23,4.1,5.24,4.11,5.25C4.15,5.28,4.18,5.28,4.2,5.23C4.23,5.17,4.26,5.1,4.28,5.04
		C4.32,4.95,4.37,4.94,4.43,5C4.44,5,4.46,5.02,4.46,5.02c0.09-0.03,0.19,0.03,0.27-0.03c0.04-0.03,0.08-0.06,0.13-0.08
		C4.92,4.89,4.95,4.85,4.95,4.8c0-0.04,0.01-0.08,0.01-0.12c0-0.01-0.01-0.02-0.01-0.03c-0.01,0-0.01-0.01-0.01-0.01
		c-0.14,0.06-0.25,0-0.35-0.08C4.49,4.49,4.4,4.42,4.31,4.35C4.15,4.21,4.18,4,4.38,3.92c0.19-0.08,0.39-0.15,0.58-0.23
		c0.05-0.02,0.07-0.05,0.07-0.1C5.05,3.43,5.07,3.27,5.09,3.1c0.01-0.08,0-0.16-0.04-0.23C5.01,2.79,5.02,2.72,5.07,2.66
		c0.02-0.02,0.05-0.04,0.08-0.05c0.07-0.01,0.11-0.04,0.16-0.1c0.03-0.04,0.08-0.07,0.12-0.08c0.11-0.02,0.22,0,0.32,0.06
		C5.9,2.59,6,2.7,6.09,2.84C6.16,2.96,6.17,3.07,6.1,3.19C6.09,3.21,6.09,3.24,6.09,3.26c0.02,0,0.05,0,0.07,0
		c0.07-0.02,0.15-0.05,0.22-0.08c0.1-0.04,0.26,0,0.35,0.1C6.84,3.41,6.93,3.55,7,3.69c0.03,0.06,0.02,0.12-0.02,0.17
		C6.9,3.96,6.81,4.02,6.68,4.02c-0.12,0-0.24,0.05-0.35,0.09C6.19,4.16,6.04,4.2,5.9,4.25C5.84,4.26,5.82,4.31,5.82,4.36
		c0,0.04,0.01,0.06,0.05,0.05c0.05-0.01,0.1-0.03,0.15-0.04C6.25,4.3,6.48,4.24,6.72,4.19c0.07-0.02,0.15-0.01,0.22-0.01
		c0.08,0,0.14,0.04,0.19,0.1c0.11,0.14,0.22,0.26,0.32,0.4c0.17,0.25,0.13,0.45-0.1,0.65c-0.2,0.18-0.4,0.36-0.6,0.54
		C6.72,5.91,6.67,5.94,6.64,5.98C6.63,5.99,6.65,6.04,6.66,6.04c0.16,0.07,0.2,0.21,0.25,0.36C6.91,6.42,6.9,6.45,6.89,6.47
		C6.87,6.51,6.84,6.55,6.81,6.59c-0.02,0.03-0.06,0.04-0.1,0.07c0.07,0.01,0.12,0.01,0.18,0.01c0.29,0,0.56,0.07,0.79,0.24
		c0.15,0.1,0.26,0.24,0.31,0.41C8.01,7.4,8,7.49,7.96,7.58C7.91,7.7,7.85,7.82,7.79,7.94C7.77,7.97,7.74,7.99,7.71,8
		C7.59,8.04,7.47,8.04,7.36,7.98C7.23,7.92,7.1,7.85,6.97,7.79C6.95,7.78,6.93,7.77,6.92,7.75c0-0.01,0.01-0.01,0.01-0.02
		c0.01-0.03,0.07-0.05,0.03-0.08c-0.02-0.02-0.07-0.02-0.1-0.01C6.81,7.65,6.77,7.66,6.75,7.61C6.74,7.59,6.71,7.59,6.68,7.59
		c-0.03,0-0.06,0-0.09,0c0-0.01,0-0.01,0-0.02c0.03-0.03,0.07-0.06,0.1-0.08C6.72,7.46,6.76,7.43,6.8,7.41
		c0.04-0.03,0.09-0.07,0.07-0.13C6.86,7.22,6.81,7.2,6.76,7.19C6.66,7.17,6.57,7.14,6.48,7.18c-0.13,0.05-0.2,0.14-0.19,0.28
		c0.01,0.09,0.05,0.18,0.08,0.27c0,0.01,0.01,0.01,0.01,0.02C6.4,7.9,6.52,7.92,6.62,7.97c0.02,0.01,0.05-0.01,0.07-0.01
		C6.68,7.93,6.67,7.91,6.66,7.9C6.6,7.85,6.54,7.8,6.48,7.76c0.04-0.05,0.08-0.03,0.11-0.01C6.66,7.77,6.72,7.8,6.78,7.83
		c0.17,0.08,0.34,0.16,0.51,0.25c0.07,0.04,0.13,0.08,0.19,0.13C7.7,8.37,7.62,8.66,7.45,8.77C7.26,8.88,7.05,8.95,6.84,8.99
		C6.5,9.05,6.17,9.07,5.83,9.04C5.52,9.02,5.23,8.93,5.01,8.7c-0.08-0.08-0.14-0.19-0.2-0.28C4.8,8.39,4.79,8.37,4.77,8.35
		C4.76,8.34,4.74,8.33,4.73,8.33c-0.01,0-0.02,0.02-0.03,0.04C4.69,8.4,4.69,8.43,4.68,8.46C4.67,8.6,4.57,8.66,4.47,8.72
		c-0.05,0.03-0.11,0.03-0.16,0C4.17,8.65,4.05,8.55,3.96,8.43C3.93,8.39,3.92,8.35,3.91,8.3C3.9,7.95,4,7.64,4.25,7.38
		c0.03-0.03,0.05-0.06,0.07-0.09c0.01-0.02,0.02-0.06,0.01-0.08C4.31,7.14,4.31,7.12,4.37,7.07C4.38,7.06,4.39,7.05,4.41,7.03z
		 M4.96,7.73C4.98,7.74,4.99,7.75,5,7.76c0.04,0.05,0.07,0.1,0.11,0.16c0.05,0.08,0.1,0.16,0.17,0.23c0.07,0.07,0.14,0.14,0.23,0.18
		c0.23,0.09,0.47,0.14,0.73,0.1c0.09-0.01,0.18-0.03,0.26-0.06c0.07-0.02,0.07-0.07,0.03-0.12C6.48,8.19,6.44,8.15,6.39,8.11
		c-0.01-0.01-0.05-0.01-0.06,0C6.17,8.19,6,8.18,5.84,8.11c-0.32-0.14-0.5-0.38-0.51-0.74c0-0.1,0.04-0.14,0.13-0.15
		c0.04,0,0.08,0.01,0.12,0.03c0.1,0.04,0.22,0.02,0.29-0.06c0.22-0.24,0.47-0.44,0.8-0.49c0.01,0,0.03-0.02,0.04-0.03
		c0-0.01-0.01-0.02-0.01-0.03C6.6,6.66,6.5,6.66,6.41,6.68C6.14,6.72,5.9,6.85,5.65,6.95C5.47,7.03,5.28,7.1,5.13,7.25
		c-0.11,0.11-0.2,0.23-0.24,0.37C4.87,7.7,4.84,7.78,4.88,7.85C4.91,7.81,4.93,7.77,4.96,7.73z M5.07,5.33
		c-0.05-0.01-0.18,0.03-0.2,0.08C4.86,5.42,4.85,5.45,4.86,5.47c0.06,0.12,0.13,0.23,0.2,0.35C5.08,5.81,5.09,5.8,5.1,5.8
		C5.2,5.75,5.19,5.75,5.14,5.66C5.11,5.6,5.08,5.53,5.07,5.47C5.06,5.43,5.07,5.38,5.07,5.33z M5.99,7.22C5.99,7.23,6,7.23,6,7.24
		c0.04-0.03,0.09-0.07,0.13-0.1c0.1-0.1,0.21-0.18,0.36-0.19C6.62,6.93,6.74,6.92,6.86,6.9c0.02,0,0.03-0.02,0.05-0.02
		C6.9,6.87,6.89,6.84,6.88,6.84c-0.05-0.01-0.1-0.03-0.14-0.02C6.62,6.84,6.5,6.88,6.39,6.91c0,0-0.01,0-0.01,0.01
		C6.31,6.95,6.24,6.99,6.17,7.03C6.09,7.07,6.03,7.14,5.99,7.22z M6.27,5.18c0.01,0,0.01,0,0.02,0.01c0.04-0.05,0.08-0.1,0.12-0.16
		C6.48,4.95,6.54,4.87,6.6,4.79c0.01-0.01,0-0.04,0-0.06c-0.05,0-0.09,0-0.13,0.01c-0.02,0-0.03,0.04-0.04,0.06
		C6.42,4.85,6.41,4.89,6.39,4.93c-0.03,0.06-0.07,0.11-0.1,0.17C6.28,5.13,6.28,5.16,6.27,5.18z M5.73,5.04
		c-0.01,0-0.01-0.01-0.02-0.01C5.65,5.05,5.59,5.07,5.53,5.09C5.48,5.11,5.47,5.13,5.5,5.18c0.02,0.05,0.04,0.1,0.06,0.16
		c0.01,0,0.03-0.01,0.04-0.03C5.62,5.3,5.62,5.28,5.63,5.26C5.66,5.19,5.69,5.12,5.73,5.04z M5.83,4.59c0.13,0,0.25-0.07,0.37-0.11
		C6.32,4.44,6.43,4.4,6.55,4.35C6.46,4.32,6,4.48,5.83,4.59z M5.08,6.41c0-0.01,0-0.01,0-0.02c-0.01,0-0.03-0.01-0.03,0
		C4.95,6.44,4.85,6.5,4.76,6.56c-0.01,0-0.01,0.03-0.01,0.03C4.76,6.6,4.78,6.61,4.79,6.61c0.02,0,0.03-0.01,0.05-0.02
		C4.92,6.53,5,6.47,5.08,6.41z M5.73,6.35c0.15,0.02,0.26-0.1,0.39-0.14C5.98,6.22,5.85,6.28,5.73,6.35z M6.38,5.99
		c0.07,0.03,0.08-0.02,0.11-0.05c0,0,0-0.02,0-0.03C6.46,5.92,6.43,5.94,6.4,5.95C6.39,5.96,6.39,5.97,6.38,5.99z"/>
	<path d="M1.74,6.22C1.61,6.24,1.49,6.27,1.37,6.28C1.13,6.29,0.92,6.21,0.73,6.07C0.7,6.04,0.7,6.02,0.71,5.97
		C0.72,5.9,0.73,5.82,0.74,5.75C0.75,5.67,0.77,5.58,0.78,5.5C0.79,5.35,0.8,5.2,0.82,5.05c0-0.02,0.01-0.04,0.02-0.05
		c0.01-0.01,0.04-0.02,0.05-0.01c0.1,0.1,0.23,0.12,0.36,0.13c0.25,0,0.47-0.1,0.67-0.25c0.33-0.25,0.57-0.57,0.79-0.92
		c0.25-0.4,0.45-0.83,0.62-1.26c0.04-0.12,0.09-0.23,0.09-0.36c0-0.03,0-0.06,0.05-0.07c0.04,0,0.06,0.02,0.07,0.06
		c0.03,0.17,0.05,0.34,0.09,0.51C3.64,2.91,3.66,3,3.69,3.08c0.06,0.15,0.04,0.29-0.01,0.43C3.45,4.14,3.18,4.74,2.79,5.29
		c-0.15,0.22-0.33,0.42-0.53,0.6C2.24,5.91,2.22,5.93,2.21,5.96c-0.12,0.3-0.17,0.61-0.18,0.93c0,0.06,0.05,0.1,0.12,0.07
		c0.08-0.03,0.15-0.09,0.19-0.17c0.01-0.02,0.03-0.04,0.05-0.06C2.4,6.71,2.42,6.69,2.43,6.67c0.15-0.27,0.3-0.54,0.44-0.81
		C3.02,5.57,3.16,5.28,3.3,4.99c0.01-0.01,0.01-0.03,0.02-0.04c0.01-0.01,0.03-0.03,0.04-0.03c0.01,0,0.03,0.02,0.03,0.04
		C3.41,5,3.42,5.05,3.43,5.09C3.45,5.24,3.47,5.4,3.49,5.55C3.51,5.63,3.54,5.7,3.56,5.77C3.58,5.82,3.59,5.87,3.6,5.92
		c0,0.04,0,0.08-0.01,0.12C3.44,6.33,3.3,6.62,3.15,6.91C3.01,7.19,2.85,7.47,2.7,7.75C2.69,7.77,2.69,7.81,2.69,7.83
		C2.71,7.92,2.73,8.01,2.74,8.1c0.01,0.06-0.03,0.1-0.08,0.11c-0.06,0.01-0.08,0.05-0.1,0.1C2.44,8.6,2.39,8.89,2.34,9.19
		c-0.17,1.18-0.22,2.37-0.19,3.56c0.01,0.37,0.04,0.74,0.07,1.11c0.02,0.2,0.09,0.39,0.19,0.56c0.06,0.1,0.11,0.1,0.15-0.01
		c0.05-0.17,0.1-0.34,0.13-0.52c0.11-0.7,0.15-1.41,0.21-2.12c0.07-0.79,0.13-1.59,0.2-2.38c0.06-0.67,0.15-1.34,0.22-2.02
		c0.01-0.07,0.01-0.13,0.02-0.2c0-0.02,0.03-0.05,0.05-0.07c0.02,0.02,0.05,0.04,0.06,0.06C3.47,7.21,3.48,7.26,3.49,7.3
		c0.03,0.21,0.06,0.41,0.1,0.62c0.02,0.11,0.06,0.22,0.1,0.32c0.04,0.11,0.05,0.23,0.04,0.35C3.7,8.83,3.66,9.08,3.64,9.32
		c-0.09,0.9-0.18,1.79-0.26,2.69c-0.08,0.9-0.15,1.81-0.23,2.72C3.12,15.01,3.06,15.29,3,15.56c-0.02,0.1-0.06,0.19-0.11,0.28
		c-0.09,0.15-0.26,0.19-0.42,0.14c-0.22-0.07-0.32-0.24-0.38-0.43C2,15.28,1.93,15.01,1.88,14.74c-0.06-0.34-0.1-0.68-0.13-1.02
		c-0.06-0.8-0.07-1.6-0.04-2.4c0.03-0.71,0.09-1.42,0.17-2.13c0.04-0.35,0.08-0.71,0.11-1.06c0-0.02-0.01-0.04-0.02-0.05
		C1.84,8,1.77,7.88,1.74,7.75C1.66,7.46,1.65,7.16,1.67,6.86c0.01-0.2,0.04-0.39,0.06-0.58C1.74,6.26,1.74,6.23,1.74,6.22z"/>
	<path class="st0" d="M2.68,2.04c-0.01,0.25-0.06,0.43-0.14,0.6c-0.22,0.5-0.55,0.92-0.95,1.28C1.38,4.11,1.15,4.26,0.87,4.34
		C0.6,4.43,0.35,4.38,0.14,4.17C0.02,4.06-0.01,3.91,0,3.75c0.01-0.19,0.04-0.39,0.06-0.58c0.02-0.15,0.04-0.3,0.04-0.44
		c0.01-0.26,0.04-0.52,0.1-0.78c0.06-0.23,0.15-0.45,0.26-0.67c0.16-0.32,0.41-0.57,0.7-0.77c0.2-0.14,0.43-0.23,0.68-0.24
		C2.03,0.26,2.21,0.3,2.31,0.47c0.06,0.1,0.09,0.22,0.11,0.34c0.04,0.2,0.06,0.39,0.1,0.59c0.02,0.1,0.06,0.2,0.09,0.3
		C2.64,1.83,2.66,1.97,2.68,2.04z M2.34,1.95c-0.16,0-0.32-0.01-0.48,0c-0.11,0.01-0.17,0.09-0.17,0.2c0,0.11,0.06,0.18,0.17,0.2
		C1.9,2.36,1.94,2.36,1.98,2.36c0.05,0,0.1,0,0.15,0c0.05,0.01,0.08,0.04,0.08,0.09c0,0.05-0.03,0.08-0.07,0.08
		c-0.03,0-0.06,0-0.1,0.01c-0.1,0-0.2,0-0.31,0c0,0.05,0,0.09,0,0.13c0.17,0,0.33,0,0.49,0c0.06,0,0.11-0.04,0.14-0.1
		c0.08-0.16-0.01-0.32-0.19-0.33c-0.07,0-0.15,0-0.22-0.01c-0.05,0-0.07-0.03-0.07-0.08c0-0.05,0.03-0.07,0.08-0.08
		c0.06,0,0.13,0,0.19,0c0.06,0,0.13,0,0.2,0C2.34,2.03,2.34,1.99,2.34,1.95z M0.98,2.24c-0.15,0-0.29,0-0.44,0
		C0.54,2.13,0.57,2.08,0.68,2.08c0.04,0,0.07,0,0.11,0c0.07,0,0.13,0,0.2,0c0-0.05,0-0.09,0-0.12c-0.13,0-0.26-0.01-0.39,0
		c-0.12,0.01-0.19,0.09-0.2,0.2C0.39,2.29,0.39,2.42,0.39,2.54c0,0.15-0.03,0.13,0.14,0.13c0,0,0.01,0,0.02-0.01
		c0-0.09,0-0.18,0-0.29c0.15,0,0.29,0,0.44,0C0.98,2.33,0.98,2.29,0.98,2.24z M1.41,2.67c0-0.2,0-0.4,0-0.59c0.05,0,0.1,0,0.14,0
		c0.11,0,0.11,0,0.11-0.11c0,0,0-0.01-0.01-0.01c-0.21,0-0.42,0-0.62,0c0,0.04,0,0.08,0,0.13c0.08,0,0.15,0,0.22,0
		c0,0.16,0,0.31,0,0.46C1.26,2.68,1.26,2.68,1.41,2.67z"/>
	<path d="M4.67,9.93C4.58,9.87,4.52,9.8,4.49,9.69C4.47,9.57,4.5,9.48,4.59,9.46C4.68,9.43,4.78,9.49,4.82,9.6
		c0.01,0.02,0.01,0.05,0.02,0.07c0.02,0.08,0.05,0.1,0.13,0.06C5.14,9.65,5.32,9.56,5.5,9.47C5.64,9.4,5.78,9.35,5.94,9.33
		c0.19-0.02,0.37,0.01,0.53,0.12c0.07,0.05,0.12,0.12,0.15,0.2c0.01,0.02,0.03,0.04,0.05,0.05C6.7,9.73,6.75,9.74,6.78,9.76
		C6.83,9.8,6.85,9.87,6.83,9.93C6.81,10,6.76,9.99,6.7,10c-0.28,0.01-0.56,0.02-0.83,0.03c-0.04,0-0.08,0.01-0.11,0.02
		c-0.01,0.09,0,0.1,0.08,0.1c0.25-0.02,0.5-0.02,0.75,0.02c0.06,0.01,0.12,0.04,0.17,0.07c0.05,0.03,0.06,0.09,0.03,0.15
		c-0.02,0.05-0.07,0.05-0.12,0.04c-0.27-0.05-0.55-0.05-0.82-0.02c-0.04,0-0.07,0.01-0.07,0.06c0,0.05,0.02,0.06,0.07,0.06
		c0.2,0,0.4-0.01,0.6,0c0.09,0.01,0.18,0.04,0.27,0.08c0.03,0.01,0.07,0.04,0.08,0.08c0.01,0.04,0.01,0.1-0.01,0.13
		c-0.01,0.03-0.07,0.03-0.11,0.04c-0.03,0-0.07-0.01-0.11-0.01c-0.02,0.1,0.02,0.16,0.1,0.19c0.08,0.03,0.15,0.06,0.22,0.1
		c0.07,0.04,0.08,0.11,0.06,0.18c-0.03,0.06-0.08,0.08-0.16,0.06c-0.33-0.1-0.67-0.09-1.01-0.06c-0.37,0.03-0.72,0.1-1.08,0.18
		c-0.01,0-0.03,0.01-0.05,0.02c0.03,0.05,0.05,0.1,0.08,0.14c0.01,0.01,0.05,0.01,0.07,0c0.3-0.06,0.59-0.14,0.89-0.19
		c0.19-0.03,0.39-0.05,0.58-0.06c0.13-0.01,0.25,0.04,0.35,0.13c0.11,0.1,0.14,0.23,0.1,0.37c-0.02,0.06-0.03,0.11-0.01,0.17
		c0.03,0.09-0.03,0.17-0.13,0.17c-0.04,0-0.09,0-0.12-0.02c-0.2-0.09-0.41-0.08-0.63-0.05c-0.2,0.03-0.39,0.06-0.59,0.09
		c-0.23,0.03-0.46,0.01-0.66-0.13c-0.08-0.05-0.12-0.12-0.12-0.21c0-0.05-0.01-0.11,0-0.16c0.02-0.08-0.02-0.14-0.06-0.2
		c-0.01-0.02-0.04-0.02-0.07-0.03c-0.06-0.02-0.12-0.04-0.16-0.08c-0.06-0.04-0.04-0.1,0.03-0.12c0.1-0.03,0.2-0.05,0.3-0.08
		c0.02-0.01,0.04-0.01,0.07-0.03c-0.03-0.03-0.05-0.05-0.07-0.07C4.42,11.07,4.41,11,4.49,10.9c-0.04-0.05-0.08-0.1-0.13-0.15
		c-0.03-0.04-0.05-0.09-0.02-0.14c0.01-0.02,0-0.05-0.01-0.08c-0.02-0.06,0-0.09,0.06-0.1c0.06-0.01,0.12-0.02,0.17-0.04
		c0.21-0.05,0.41-0.1,0.62-0.15c0.03-0.01,0.08-0.01,0.07-0.06c-0.01-0.05-0.05-0.06-0.09-0.05c-0.17,0.03-0.34,0.07-0.51,0.09
		c-0.07,0.01-0.14,0-0.2-0.01c-0.04-0.01-0.08-0.04-0.11-0.07c-0.04-0.04-0.02-0.09,0.04-0.11C4.47,10,4.57,9.98,4.66,9.95
		C4.67,9.95,4.67,9.94,4.67,9.93z M4.78,11.87c0.01,0.11,0.04,0.14,0.14,0.13c0.05-0.01,0.11-0.02,0.16-0.04
		c0.37-0.1,0.75-0.17,1.14-0.14c0.04,0,0.06-0.01,0.06-0.04c0-0.03,0.01-0.05,0.01-0.08c0.01-0.05-0.02-0.08-0.07-0.07
		c-0.08,0-0.15,0.01-0.23,0.02C5.59,11.71,5.19,11.79,4.78,11.87z M5.39,9.78c0.02,0.01,0.03,0.01,0.04,0.01
		c0.17-0.02,0.33-0.04,0.5-0.06c0.01,0,0.03-0.01,0.04-0.02c0.06-0.04,0.12-0.09,0.17-0.13c0.03-0.02,0.03-0.05,0-0.06
		C6.09,9.5,6.03,9.49,5.98,9.5C5.76,9.53,5.58,9.65,5.39,9.78z M4.54,10.76c0.06-0.01,0.11-0.02,0.16-0.03
		c0.12-0.03,0.24-0.07,0.37-0.1c0.04-0.01,0.09-0.02,0.13-0.02c0.06-0.01,0.05-0.05,0.04-0.09c0-0.01-0.04-0.02-0.06-0.02
		c-0.02,0-0.03,0-0.05,0.01c-0.21,0.04-0.42,0.08-0.62,0.12c-0.02,0-0.04,0.02-0.05,0.03c-0.01,0.02-0.02,0.06,0,0.07
		C4.48,10.74,4.51,10.75,4.54,10.76z M4.85,10.93c0.03,0.07,0.06,0.12,0.09,0.17c0.01,0.01,0.04,0.02,0.06,0.01
		c0.07-0.01,0.14-0.03,0.21-0.05c0.02,0,0.04-0.03,0.04-0.04c0-0.05-0.01-0.1-0.02-0.15c0,0-0.01,0-0.02,0
		C5.1,10.88,4.98,10.9,4.85,10.93z M5.79,10.89c0,0.09,0,0.09,0.1,0.09c0.05,0,0.09-0.01,0.14-0.01c0.1,0,0.12-0.02,0.11-0.12
		c0-0.04-0.01-0.05-0.05-0.05c-0.07,0-0.14,0-0.2,0C5.79,10.79,5.79,10.8,5.79,10.89z"/>
	<path d="M4.68,13.92c-0.12-0.1-0.18-0.22-0.21-0.35c-0.02-0.07-0.03-0.14-0.05-0.22c-0.01-0.07,0.02-0.11,0.09-0.13
		c0.09-0.02,0.19,0.04,0.24,0.14c0.02,0.05,0.04,0.1,0.06,0.15c0.02,0.04,0.05,0.06,0.09,0.03c0.08-0.04,0.16-0.08,0.24-0.13
		c0.03-0.02,0.04-0.03,0.02-0.07c-0.09-0.15,0.04-0.29,0.18-0.28c0.1,0,0.19,0.02,0.27,0.09c0.01,0.01,0.05,0.02,0.07,0.01
		c0.2-0.06,0.4-0.12,0.61-0.1c0.1,0.01,0.21,0.03,0.29,0.09c0.12,0.09,0.15,0.22,0.08,0.36c-0.02,0.04-0.05,0.08-0.07,0.13
		c0.03,0.01,0.05,0.01,0.08,0.02c0.07,0.03,0.14,0.04,0.2,0.08c0.09,0.05,0.11,0.13,0.09,0.23c-0.02,0.09-0.07,0.16-0.17,0.18
		c-0.07,0.02-0.14,0.03-0.21,0.05c0.01,0.01,0.01,0.03,0.01,0.03c0.14,0.17,0.07,0.43-0.04,0.57c-0.04,0.06-0.11,0.07-0.17,0.05
		c-0.22-0.07-0.43-0.03-0.64,0.01c-0.02,0-0.04,0.01-0.06,0.02c0.03,0.04,0.06,0.08,0.09,0.1c0.02,0.01,0.05,0.02,0.07,0.02
		c0.22-0.02,0.44-0.02,0.66,0.02c0.06,0.01,0.13,0.04,0.18,0.07c0.05,0.03,0.07,0.08,0.07,0.14c-0.01,0.09-0.05,0.13-0.14,0.12
		c-0.22-0.04-0.44-0.05-0.67-0.03c-0.05,0-0.06,0.02-0.06,0.07c0,0.12,0,0.12,0.12,0.12c0.24,0,0.48,0.02,0.72,0.07
		c0.07,0.02,0.13,0.06,0.19,0.11c0.03,0.02,0.04,0.07,0.04,0.11c0,0.11-0.06,0.15-0.17,0.14c-0.18-0.03-0.37-0.06-0.56-0.07
		c-0.43-0.03-0.87,0.01-1.3,0.06c-0.14,0.02-0.29,0.04-0.43,0.05c-0.08,0.01-0.16-0.02-0.2-0.1c-0.02-0.03-0.02-0.08,0-0.11
		c0.01-0.02,0.06-0.03,0.09-0.03c0.02-0.01,0.05,0,0.08-0.01c0.27-0.05,0.53-0.1,0.8-0.15c0.05-0.01,0.08-0.02,0.07-0.08
		c0-0.03,0-0.06,0-0.1c-0.06,0.01-0.11,0.01-0.16,0.02c-0.14,0.03-0.27,0.06-0.41,0.08c-0.07,0.01-0.14,0.01-0.2-0.01
		c-0.04-0.01-0.08-0.05-0.1-0.09c-0.03-0.05,0-0.11,0.05-0.12c0.07-0.01,0.14-0.02,0.2-0.04c0.18-0.04,0.37-0.09,0.55-0.14
		c0.01,0,0.03-0.01,0.04-0.02c-0.02-0.07-0.05-0.1-0.12-0.09C5.04,15.03,4.92,15,4.79,14.96c-0.13-0.04-0.18-0.11-0.18-0.24
		c0-0.01,0-0.01,0-0.02c0-0.15,0-0.15-0.1-0.28c0,0.05-0.01,0.08-0.01,0.11c0,0.04-0.01,0.08-0.02,0.13
		c-0.02,0.08-0.05,0.11-0.12,0.11c-0.08,0-0.13-0.03-0.15-0.1c-0.01-0.07-0.01-0.14,0-0.2c0.02-0.12,0.05-0.24,0.08-0.35
		c0.01-0.05,0.01-0.09-0.04-0.12c-0.04-0.03-0.04-0.08,0.01-0.11c0.05-0.03,0.12-0.03,0.17,0.02C4.51,13.97,4.58,13.94,4.68,13.92z
		 M6.38,13.94c0-0.01-0.01-0.02-0.01-0.03c-0.04,0-0.08-0.01-0.12,0c-0.32,0.05-0.64,0.09-0.96,0.16c-0.24,0.05-0.47,0.12-0.71,0.12
		c-0.01,0-0.04,0.01-0.04,0.02c-0.01,0.06-0.02,0.11-0.02,0.17c0.08-0.07,0.15-0.08,0.23-0.03c0.05,0.04,0.1,0.03,0.15,0.01
		c0.39-0.13,0.78-0.23,1.19-0.27c0.1-0.01,0.18-0.05,0.25-0.11C6.36,13.98,6.37,13.96,6.38,13.94z M6.19,14.41
		c0-0.06-0.03-0.08-0.07-0.08c-0.11,0.01-0.21,0.02-0.32,0.04c-0.28,0.06-0.56,0.13-0.84,0.19c-0.02,0-0.04,0.03-0.03,0.05
		c0.02,0.2,0.03,0.21,0.22,0.14c0.32-0.11,0.63-0.21,0.97-0.21c0.02,0,0.04-0.02,0.05-0.03C6.18,14.48,6.18,14.44,6.19,14.41z
		 M5.69,13.75c0.06-0.03,0.13-0.03,0.17-0.07c0.09-0.1,0.16-0.21,0.24-0.32c0.01-0.02,0.02-0.05,0.01-0.07
		c-0.01-0.01-0.05-0.02-0.07-0.02c-0.07,0.01-0.14,0.03-0.2,0.05c-0.14,0.04-0.13,0.04-0.14,0.18c0,0.05-0.01,0.11-0.01,0.16
		C5.69,13.69,5.69,13.71,5.69,13.75z M5.24,13.57c-0.19,0.04-0.32,0.15-0.41,0.32c0.12-0.02,0.24-0.04,0.36-0.05
		c0.01,0,0.03-0.02,0.03-0.03C5.23,13.73,5.23,13.65,5.24,13.57z"/>
	<path class="st1" d="M2.34,1.95c0,0.04,0,0.08,0,0.13c-0.07,0-0.13,0-0.2,0c-0.06,0-0.13,0-0.19,0c-0.05,0-0.08,0.02-0.08,0.08
		c0,0.05,0.03,0.08,0.07,0.08c0.07,0,0.15,0.01,0.22,0.01c0.18,0.01,0.27,0.17,0.19,0.33c-0.03,0.06-0.08,0.1-0.14,0.1
		c-0.16,0.01-0.32,0-0.49,0c0-0.04,0-0.08,0-0.13c0.1,0,0.21,0,0.31,0c0.03,0,0.06,0,0.1-0.01C2.18,2.53,2.21,2.5,2.21,2.46
		c0-0.05-0.03-0.08-0.08-0.09c-0.05-0.01-0.1,0-0.15,0c-0.04,0-0.08,0-0.12-0.01c-0.11-0.02-0.17-0.09-0.17-0.2
		c0-0.11,0.06-0.2,0.17-0.2C2.02,1.94,2.18,1.95,2.34,1.95z"/>
	<path class="st1" d="M0.98,2.24c0,0.05,0,0.08,0,0.13c-0.15,0-0.29,0-0.44,0c0,0.1,0,0.2,0,0.29C0.53,2.67,0.53,2.67,0.52,2.67
		c-0.17,0-0.13,0.02-0.14-0.13c0-0.13,0-0.26,0.01-0.38c0.01-0.12,0.08-0.19,0.2-0.2c0.13-0.01,0.25,0,0.39,0c0,0.03,0,0.07,0,0.12
		c-0.07,0-0.13,0-0.2,0c-0.04,0-0.07,0-0.11,0C0.57,2.08,0.54,2.13,0.55,2.24C0.69,2.24,0.84,2.24,0.98,2.24z"/>
	<path class="st1" d="M1.41,2.67C1.26,2.68,1.26,2.68,1.26,2.54c0-0.15,0-0.31,0-0.46c-0.08,0-0.15,0-0.22,0c0-0.04,0-0.08,0-0.13
		c0.21,0,0.41,0,0.62,0c0,0,0.01,0.01,0.01,0.01c0.01,0.11,0.01,0.11-0.11,0.11c-0.04,0-0.09,0-0.14,0
		C1.41,2.27,1.41,2.47,1.41,2.67z"/>
</g>
</svg>
